<svg width="71" height="71" viewBox="0 0 71 71" fill="none" xmlns="http://www.w3.org/2000/svg">
<path fill-rule="evenodd" clip-rule="evenodd" d="M21.5592 26.5788C20.3338 27.8931 19.5527 29.8564 19.5527 32.3688V44.1069C19.5527 46.6221 20.3311 48.5852 21.5537 49.8982C22.7597 51.1933 24.5613 52.0346 26.9881 52.0346H44.0108C46.441 52.0346 48.2431 51.193 49.4487 49.8982C50.6711 48.5855 51.449 46.6226 51.449 44.1069V32.3688C51.449 29.8532 50.6711 27.8903 49.449 26.5776C48.2436 25.2828 46.4422 24.4414 44.0138 24.4414H26.9881C24.5713 24.4414 22.7686 25.2818 21.5592 26.5788ZM18.3136 23.5527C20.4482 21.2633 23.4724 20.0039 26.9881 20.0039H44.0138C47.5378 20.0039 50.5634 21.2623 52.6969 23.5539C54.8136 25.8276 55.8865 28.9378 55.8865 32.3688V44.1069C55.8865 47.538 54.8136 50.6484 52.6963 52.9222C50.5624 55.2139 47.536 56.4721 44.0108 56.4721H26.9881C23.4652 56.4721 20.4397 55.2136 18.3061 52.9222C16.1891 50.6487 15.1152 47.5384 15.1152 44.1069V32.3688C15.1152 28.9346 16.1951 25.8248 18.3136 23.5527Z" fill="white"/>
<path fill-rule="evenodd" clip-rule="evenodd" d="M29.4626 42.077C29.9532 40.9541 31.2612 40.4416 32.3841 40.9323C34.4858 41.8507 36.5102 41.8507 38.6119 40.9323C39.7348 40.4416 41.0428 40.9541 41.5335 42.077C42.0241 43.1999 41.5116 44.5079 40.3887 44.9985C37.1542 46.4119 33.8418 46.4119 30.6073 44.9985C29.4844 44.5079 28.9719 43.1999 29.4626 42.077Z" fill="white"/>
<path fill-rule="evenodd" clip-rule="evenodd" d="M42.0288 30.3232C43.2542 30.3232 44.2476 31.3166 44.2476 32.542V32.5716C44.2476 33.797 43.2542 34.7903 42.0288 34.7903C40.8034 34.7903 39.8101 33.797 39.8101 32.5716V32.542C39.8101 31.3166 40.8034 30.3232 42.0288 30.3232Z" fill="white"/>
<path fill-rule="evenodd" clip-rule="evenodd" d="M28.9707 30.3232C30.1961 30.3232 31.1895 31.3166 31.1895 32.542V32.5716C31.1895 33.797 30.1961 34.7903 28.9707 34.7903C27.7453 34.7903 26.752 33.797 26.752 32.5716V32.542C26.752 31.3166 27.7453 30.3232 28.9707 30.3232Z" fill="white"/>
<path fill-rule="evenodd" clip-rule="evenodd" d="M8.98779 37.9705C8.98779 33.7445 12.4149 30.3232 16.638 30.3232H17.3346C18.56 30.3232 19.5534 31.3166 19.5534 32.542C19.5534 33.7674 18.56 34.7607 17.3346 34.7607H16.638C14.8626 34.7607 13.4253 36.1983 13.4253 37.9705C13.4253 39.7446 14.8641 41.1833 16.638 41.1833H17.3346C18.56 41.1833 19.5534 42.1767 19.5534 43.402C19.5534 44.6274 18.56 45.6208 17.3346 45.6208H16.638C12.4134 45.6208 8.98779 42.1954 8.98779 37.9705Z" fill="white"/>
<path fill-rule="evenodd" clip-rule="evenodd" d="M51.4473 32.542C51.4473 31.3166 52.4406 30.3232 53.666 30.3232H54.3657C58.5902 30.3232 62.0129 33.746 62.0129 37.9705C62.0129 42.1939 58.5917 45.6208 54.3657 45.6208H53.666C52.4406 45.6208 51.4473 44.6274 51.4473 43.402C51.4473 42.1767 52.4406 41.1833 53.666 41.1833H54.3657C56.1379 41.1833 57.5754 39.7461 57.5754 37.9705C57.5754 36.1968 56.1394 34.7607 54.3657 34.7607H53.666C52.4406 34.7607 51.4473 33.7674 51.4473 32.542Z" fill="white"/>
<path fill-rule="evenodd" clip-rule="evenodd" d="M29.6294 12.5277C29.6294 9.28448 32.2579 6.65625 35.5008 6.65625C38.7441 6.65625 41.3722 9.2846 41.3722 12.5277C41.3722 15.7704 38.7444 18.3993 35.5011 18.3993C32.2578 18.3993 29.6294 15.7708 29.6294 12.5277ZM35.5008 11.0937C34.7085 11.0937 34.0669 11.7354 34.0669 12.5277C34.0669 13.3201 34.7086 13.9618 35.5011 13.9618C36.2929 13.9618 36.9347 13.3204 36.9347 12.5277C36.9347 11.7352 36.2932 11.0937 35.5008 11.0937Z" fill="white"/>
<path fill-rule="evenodd" clip-rule="evenodd" d="M35.5 13.96C36.7254 13.96 37.7188 14.9533 37.7188 16.1787V22.2176C37.7188 23.4429 36.7254 24.4363 35.5 24.4363C34.2746 24.4363 33.2812 23.4429 33.2812 22.2176V16.1787C33.2812 14.9533 34.2746 13.96 35.5 13.96Z" fill="white"/>
<path fill-rule="evenodd" clip-rule="evenodd" d="M23.395 62.125C23.395 60.8996 24.3884 59.9062 25.6138 59.9062H45.3911C46.6165 59.9062 47.6099 60.8996 47.6099 62.125C47.6099 63.3504 46.6165 64.3438 45.3911 64.3438H25.6138C24.3884 64.3438 23.395 63.3504 23.395 62.125Z" fill="white"/>
</svg>
