<svg width="71" height="70" viewBox="0 0 71 70" fill="none" xmlns="http://www.w3.org/2000/svg">
<g clip-path="url(#clip0_166_1858)">
<path d="M35.5 34.5755C39.8562 34.5755 43.4075 30.6942 43.4075 25.9717C43.4075 21.303 39.875 17.6055 35.5 17.6055C31.1625 17.6055 27.5925 21.358 27.5925 26.008C27.61 30.713 31.1612 34.5755 35.5 34.5755ZM14.4125 34.9767C18.1825 34.9767 21.2762 31.5892 21.2762 27.4342C21.2762 23.3717 18.22 20.0942 14.4125 20.0942C10.6412 20.0942 7.52875 23.4255 7.5475 27.4705C7.56625 31.608 10.6412 34.9767 14.4125 34.9767ZM56.6062 34.9767C60.3587 34.9767 63.4525 31.608 63.4525 27.4705C63.4712 23.4255 60.3587 20.0942 56.6062 20.0942C52.7812 20.0942 49.7238 23.3705 49.7238 27.4342C49.7238 31.5892 52.8175 34.9767 56.6062 34.9767ZM35.5 31.8105C32.8275 31.8105 30.5387 29.248 30.5387 26.008C30.5387 22.823 32.7912 20.3705 35.5012 20.3705C38.2275 20.3705 40.4612 22.7867 40.4612 25.9705C40.4612 29.2117 38.2087 31.8105 35.5 31.8105ZM14.4125 32.2505C12.1788 32.2505 10.275 30.108 10.275 27.4717C10.275 24.8917 12.16 22.8217 14.4125 22.8217C16.7188 22.8217 18.5675 24.8542 18.5675 27.4355C18.5675 30.108 16.6637 32.2505 14.4125 32.2505ZM56.6062 32.2505C54.3362 32.2505 52.4325 30.108 52.4325 27.4355C52.4325 24.8542 54.2812 22.823 56.6062 22.823C58.8575 22.823 60.725 24.8917 60.725 27.473C60.725 30.108 58.8387 32.2505 56.6062 32.2505ZM4.23375 51.763H18.6037C17.725 51.2692 17.0475 50.1705 17.1762 49.0542H3.77625C3.41 49.0542 3.2275 48.908 3.2275 48.5605C3.2275 44.0205 8.4075 39.773 14.3937 39.773C16.7 39.773 18.7687 40.323 20.5437 41.3655C21.1327 40.6192 21.83 39.9653 22.6125 39.4255C20.2512 37.8692 17.4137 37.0642 14.3937 37.0642C6.72375 37.0642 0.5 42.6292 0.5 48.7255C0.5 50.7567 1.745 51.763 4.23375 51.763ZM66.7837 51.763C69.255 51.763 70.5 50.7567 70.5 48.7255C70.5 42.6292 64.275 37.0642 56.6062 37.0642C53.5862 37.0642 50.7662 37.8692 48.3875 39.4267C49.2113 39.993 49.8875 40.6342 50.475 41.3655C52.2312 40.323 54.3175 39.773 56.6062 39.773C62.5925 39.773 67.7725 44.0205 67.7725 48.5605C67.7725 48.908 67.6075 49.0542 67.2412 49.0542H53.8412C53.9512 50.1705 53.2925 51.2692 52.4137 51.763H66.7837ZM24.0037 51.763H46.9962C50.0337 51.763 51.4812 50.848 51.4812 48.8342C51.4812 44.038 45.4212 37.1005 35.5 37.1005C25.56 37.1005 19.5 44.038 19.5 48.8342C19.5 50.848 20.9475 51.763 24.0037 51.763ZM23.125 49.0005C22.65 49.0005 22.4487 48.8717 22.4487 48.488C22.4487 45.4842 27.0987 39.8655 35.5 39.8655C43.8837 39.8655 48.5337 45.4842 48.5337 48.4867C48.5337 48.8717 48.35 48.9992 47.875 48.9992L23.125 49.0005Z" fill="#F8F9FF"/>
</g>
<defs>
<clipPath id="clip0_166_1858">
<rect width="70" height="70" fill="white" transform="translate(0.5)"/>
</clipPath>
</defs>
</svg>
