<svg width="1440" height="151" viewBox="0 0 1440 151" fill="none" xmlns="http://www.w3.org/2000/svg">
<path d="M-141.971 118.477C-192.391 121.155 -211.499 138.608 -215 152L1701.5 162C1694.3 133.877 1642.98 136.472 1623.47 138.564C1594.66 110.107 1544.94 119.034 1516.93 122.661C1476.71 103.243 1435.65 114.571 1420.14 122.661C1396.13 95.2082 1326.6 101.458 1294.84 108.014C1275.03 88.2612 1224.06 88.9029 1201.05 91.6929C1199.55 77.0456 1170.29 58.632 1081.01 58.632C1066 27.831 1009.73 32.1274 983.469 38.1258C958.859 15.3598 909.19 21.6651 887.432 27.6634C870.625 5.23221 819.905 4.92539 796.646 7.57589C772.036 -5.81581 743.875 1.99601 732.871 7.57589C680.651 -0.793977 649.088 24.4551 639.835 38.1258C595.417 21.7209 559.257 40.619 542 47.4544C494.581 37.7453 458.753 52.0281 451.5 62.9089C402.489 52.1858 375 67.2684 361.5 76.9998C309.5 67.2684 270.753 85.7365 264 97.4544C229.787 84.0626 184.506 84.6785 168.5 92.9089C106 69.7271 73.2583 95.3855 52 106.545C14.7854 105.206 -14.1712 107.038 -24.9254 114.292C-70 94.2039 -127.716 105.085 -141.971 118.477Z" fill="#D0ECF8"/>
</svg>
