<svg width="720" height="179" viewBox="0 0 720 179" fill="none" xmlns="http://www.w3.org/2000/svg">
<path d="M45.1836 131.586C14.2005 134.566 2.1516 165.104 0 180H1178C1173.57 148.717 1142.04 151.604 1130.05 153.931C1112.35 122.276 1081.79 132.207 1064.58 136.242C1039.87 114.642 1014.63 127.242 1005.1 136.242C990.35 105.704 947.625 112.655 928.107 119.948C915.935 97.9762 884.614 98.69 870.475 101.793C869.553 85.5004 851.572 65.0178 796.706 65.0178C787.485 30.756 752.906 35.5352 736.769 42.2076C721.646 16.8836 691.124 23.8973 677.753 30.5696C667.426 5.61805 636.258 5.27676 621.966 8.22506C606.843 -6.67132 589.538 2.01824 582.776 8.22506C550.686 -1.08524 531.291 27.0008 525.605 42.2076C498.31 23.9594 470.278 34.6041 459.674 42.2076C430.535 31.4076 414.336 52.9144 409.879 65.0178C388.486 40.4386 362.237 54.7765 351.786 65.0178C315.271 58.3144 297.843 82.7074 293.693 95.7418C272.669 80.8453 247.741 95.4315 237.905 104.587C211.348 74.7937 178.583 92.1729 165.519 104.587C142.651 103.097 123.717 118.862 117.108 126.931C80.5927 94.9039 53.9436 116.69 45.1836 131.586Z" fill="#AFD3E2"/>
</svg>
