<svg width="54" height="54" viewBox="0 0 54 54" fill="none" xmlns="http://www.w3.org/2000/svg">
<path d="M14.1928 22.1376L27.1372 22.1113C31.0426 22.1026 33.4791 24.8522 33.4879 28.7532L33.512 39.2807C33.5207 43.1818 31.0995 45.9423 27.1919 45.9531L14.2498 45.9794C10.3444 45.9882 7.91006 43.2387 7.8991 39.3354L7.87502 28.8101C7.86627 24.9091 10.3006 22.1464 14.1928 22.1376Z" stroke="#0879A6" stroke-width="3" stroke-linecap="round" stroke-linejoin="round"/>
<path opacity="0.4" d="M14.2515 39.2803H18.3473" stroke="#0879A6" stroke-width="3" stroke-linecap="round" stroke-linejoin="round"/>
<path opacity="0.4" d="M24.4451 22.1113L24.4672 30.1892L20.7127 28.9654L16.9343 30.2112L16.9233 22.1442" stroke="#0879A6" stroke-width="3" stroke-linecap="round" stroke-linejoin="round"/>
<path d="M27.1935 45.9789L41.0441 45.9483C45.5756 45.9373 48.3865 42.7346 48.3755 38.2096L48.3449 15.7251C48.3361 11.2001 45.5099 8.01058 40.9806 8.02151L28.0231 8.05218C23.5069 8.06311 20.6829 11.2658 20.6939 15.7907L20.7223 21.8349" stroke="#0879A6" stroke-width="3" stroke-linecap="round" stroke-linejoin="round"/>
<path opacity="0.4" d="M38.8834 8.02148L38.9097 17.2749L34.5532 15.8564L30.1727 17.3012L30.1597 8.06088" stroke="#0879A6" stroke-width="3" stroke-linecap="round" stroke-linejoin="round"/>
</svg>
