<svg width="54" height="54" viewBox="0 0 54 54" fill="none" xmlns="http://www.w3.org/2000/svg">
<path d="M45.0308 25.2422H48.5381" stroke="#0879A6" stroke-width="3" stroke-linecap="round" stroke-linejoin="round"/>
<path d="M42.0776 14.4578L45.1149 12.7041" stroke="#0879A6" stroke-width="3" stroke-linecap="round" stroke-linejoin="round"/>
<path d="M42.0776 36.0352L45.1149 37.7888" stroke="#0879A6" stroke-width="3" stroke-linecap="round" stroke-linejoin="round"/>
<path d="M11.5445 25.2422H8.03711" stroke="#0879A6" stroke-width="3" stroke-linecap="round" stroke-linejoin="round"/>
<path d="M14.4954 14.4578L11.458 12.7041" stroke="#0879A6" stroke-width="3" stroke-linecap="round" stroke-linejoin="round"/>
<path d="M14.4954 36.0352L11.458 37.7888" stroke="#0879A6" stroke-width="3" stroke-linecap="round" stroke-linejoin="round"/>
<path opacity="0.4" d="M16.9205 28.013L23.211 12.6641C23.3521 12.2793 23.7184 12.0234 24.1283 12.0234H32.5613C33.2357 12.0234 33.7075 12.6905 33.4827 13.3264L29.7533 22.0789C29.5286 22.7149 30.0004 23.3818 30.6749 23.3818H38.6375C39.4774 23.3818 39.926 24.3713 39.3725 25.0031L24.2537 42.2602C23.5724 43.0378 22.3079 42.3632 22.5743 41.3642L25.4563 30.5559C25.6219 29.9356 25.1541 29.3269 24.5122 29.3269H17.838C17.1586 29.3269 16.6865 28.6508 16.9205 28.013Z" stroke="#0879A6" stroke-width="3" stroke-linecap="round" stroke-linejoin="round"/>
</svg>
