<svg width="43" height="44" viewBox="0 0 43 44" fill="none" xmlns="http://www.w3.org/2000/svg">
<rect y="0.5" width="43" height="43" rx="10" fill="#F6F1F1"/>
<path fill-rule="evenodd" clip-rule="evenodd" d="M13.057 16.5967C12.3148 17.3927 11.8418 18.5817 11.8418 20.1033V27.2123C11.8418 28.7357 12.3132 29.9245 13.0537 30.7197C13.7841 31.5041 14.8752 32.0136 16.3449 32.0136H26.6544C28.1262 32.0136 29.2177 31.5039 29.9478 30.7197C30.6881 29.9247 31.1592 28.7359 31.1592 27.2123V20.1033C31.1592 18.5798 30.6881 17.391 29.948 16.596C29.2179 15.8118 28.127 15.3022 26.6562 15.3022H16.3449C14.8812 15.3022 13.7894 15.8112 13.057 16.5967ZM11.0913 14.764C12.3841 13.3775 14.2157 12.6147 16.3449 12.6147H26.6562C28.7905 12.6147 30.6229 13.3769 31.915 14.7648C33.197 16.1418 33.8467 18.0254 33.8467 20.1033V27.2123C33.8467 29.2903 33.197 31.1741 31.9147 32.5512C30.6223 33.9391 28.7894 34.7011 26.6544 34.7011H16.3449C14.2113 34.7011 12.379 33.9389 11.0868 32.5512C9.80468 31.1742 9.1543 29.2906 9.1543 27.2123V20.1033C9.1543 18.0235 9.80828 16.1401 11.0913 14.764Z" fill="#0879A6"/>
<path fill-rule="evenodd" clip-rule="evenodd" d="M17.8437 25.9828C18.1409 25.3028 18.9331 24.9924 19.6131 25.2895C20.886 25.8457 22.112 25.8457 23.3849 25.2895C24.0649 24.9924 24.8571 25.3028 25.1543 25.9828C25.4514 26.6628 25.141 27.455 24.461 27.7522C22.502 28.6082 20.4959 28.6082 18.537 27.7522C17.857 27.455 17.5466 26.6628 17.8437 25.9828Z" fill="#0879A6"/>
<path fill-rule="evenodd" clip-rule="evenodd" d="M25.4541 18.8647C26.1962 18.8647 26.7979 19.4664 26.7979 20.2085V20.2264C26.7979 20.9685 26.1962 21.5702 25.4541 21.5702C24.712 21.5702 24.1104 20.9685 24.1104 20.2264V20.2085C24.1104 19.4664 24.712 18.8647 25.4541 18.8647Z" fill="#0879A6"/>
<path fill-rule="evenodd" clip-rule="evenodd" d="M17.5459 18.8647C18.288 18.8647 18.8896 19.4664 18.8896 20.2085V20.2264C18.8896 20.9685 18.288 21.5702 17.5459 21.5702C16.8038 21.5702 16.2021 20.9685 16.2021 20.2264V20.2085C16.2021 19.4664 16.8038 18.8647 17.5459 18.8647Z" fill="#0879A6"/>
<path fill-rule="evenodd" clip-rule="evenodd" d="M5.44336 23.4962C5.44336 20.9367 7.51895 18.8647 10.0766 18.8647H10.4985C11.2406 18.8647 11.8422 19.4664 11.8422 20.2085C11.8422 20.9506 11.2406 21.5522 10.4985 21.5522H10.0766C9.00134 21.5522 8.13086 22.4229 8.13086 23.4962C8.13086 24.5706 9.00225 25.442 10.0766 25.442H10.4985C11.2406 25.442 11.8422 26.0436 11.8422 26.7857C11.8422 27.5278 11.2406 28.1295 10.4985 28.1295H10.0766C7.51804 28.1295 5.44336 26.0549 5.44336 23.4962Z" fill="#0879A6"/>
<path fill-rule="evenodd" clip-rule="evenodd" d="M31.1582 20.2085C31.1582 19.4664 31.7598 18.8647 32.502 18.8647H32.9257C35.4842 18.8647 37.5571 20.9377 37.5571 23.4962C37.5571 26.054 35.4851 28.1295 32.9257 28.1295H32.502C31.7598 28.1295 31.1582 27.5278 31.1582 26.7857C31.1582 26.0436 31.7598 25.442 32.502 25.442H32.9257C33.999 25.442 34.8696 24.5715 34.8696 23.4962C34.8696 22.4219 33.9999 21.5522 32.9257 21.5522H32.502C31.7598 21.5522 31.1582 20.9506 31.1582 20.2085Z" fill="#0879A6"/>
<path fill-rule="evenodd" clip-rule="evenodd" d="M17.9448 8.08717C17.9448 6.123 19.5367 4.53125 21.5007 4.53125C23.465 4.53125 25.0567 6.12307 25.0567 8.08717C25.0567 10.0511 23.4652 11.6433 21.5009 11.6433C19.5367 11.6433 17.9448 10.0513 17.9448 8.08717ZM21.5007 7.21875C21.0209 7.21875 20.6323 7.60733 20.6323 8.08717C20.6323 8.56708 21.021 8.95575 21.5009 8.95575C21.9805 8.95575 22.3692 8.56729 22.3692 8.08717C22.3692 7.60726 21.9807 7.21875 21.5007 7.21875Z" fill="#0879A6"/>
<path fill-rule="evenodd" clip-rule="evenodd" d="M21.5 8.95459C22.2421 8.95459 22.8438 9.55621 22.8438 10.2983V13.9557C22.8438 14.6978 22.2421 15.2994 21.5 15.2994C20.7579 15.2994 20.1562 14.6978 20.1562 13.9557V10.2983C20.1562 9.55621 20.7579 8.95459 21.5 8.95459Z" fill="#0879A6"/>
<path fill-rule="evenodd" clip-rule="evenodd" d="M14.1689 38.125C14.1689 37.3829 14.7706 36.7812 15.5127 36.7812H27.4905C28.2327 36.7812 28.8343 37.3829 28.8343 38.125C28.8343 38.8671 28.2327 39.4688 27.4905 39.4688H15.5127C14.7706 39.4688 14.1689 38.8671 14.1689 38.125Z" fill="#0879A6"/>
</svg>
