<svg width="40" height="40" viewBox="0 0 40 40" fill="none" xmlns="http://www.w3.org/2000/svg">
<circle cx="20" cy="20" r="20" fill="#F8F9FF"/>
<path d="M20 18.125C21.0355 18.125 21.875 17.2855 21.875 16.25C21.875 15.2145 21.0355 14.375 20 14.375C18.9645 14.375 18.125 15.2145 18.125 16.25C18.125 17.2855 18.9645 18.125 20 18.125Z" fill="#0879A6"/>
<path d="M20 6.875C14.8309 6.875 10.625 10.8975 10.625 15.8398C10.625 18.1936 11.6979 21.3236 13.8137 25.1434C15.5129 28.2102 17.4787 30.9834 18.5012 32.3633C18.6739 32.5991 18.8998 32.7908 19.1606 32.923C19.4213 33.0551 19.7095 33.124 20.0018 33.124C20.2941 33.124 20.5822 33.0551 20.843 32.923C21.1037 32.7908 21.3296 32.5991 21.5023 32.3633C22.523 30.9834 24.4906 28.2102 26.1898 25.1434C28.3021 21.3248 29.375 18.1947 29.375 15.8398C29.375 10.8975 25.1691 6.875 20 6.875ZM20 20C19.2583 20 18.5333 19.7801 17.9166 19.368C17.2999 18.956 16.8193 18.3703 16.5355 17.6851C16.2516 16.9998 16.1774 16.2458 16.3221 15.5184C16.4667 14.791 16.8239 14.1228 17.3483 13.5983C17.8728 13.0739 18.541 12.7167 19.2684 12.5721C19.9958 12.4274 20.7498 12.5016 21.4351 12.7855C22.1203 13.0693 22.706 13.5499 23.118 14.1666C23.5301 14.7833 23.75 15.5083 23.75 16.25C23.7489 17.2442 23.3535 18.1974 22.6505 18.9005C21.9474 19.6035 20.9942 19.9989 20 20Z" fill="#0879A6"/>
</svg>
