<svg width="40" height="40" viewBox="0 0 40 40" fill="none" xmlns="http://www.w3.org/2000/svg">
<circle cx="20" cy="20" r="20" fill="#F8F9FF"/>
<g clip-path="url(#clip0_198_1497)">
<path fill-rule="evenodd" clip-rule="evenodd" d="M25.6902 32.6663C23.8902 32.6001 18.789 31.8951 13.4465 26.5538C8.10524 21.2113 7.40149 16.1113 7.33399 14.3101C7.23399 11.5651 9.33649 8.89884 11.7652 7.85759C12.0577 7.73129 12.378 7.68321 12.6947 7.71806C13.0113 7.7529 13.3135 7.86947 13.5715 8.05634C15.5715 9.51384 16.9515 11.7188 18.1365 13.4526C18.3972 13.8335 18.5087 14.297 18.4497 14.7548C18.3907 15.2126 18.1653 15.6327 17.8165 15.9351L15.3777 17.7463C15.2599 17.8314 15.177 17.9564 15.1443 18.098C15.1117 18.2396 15.1316 18.3883 15.2002 18.5163C15.7527 19.5201 16.7352 21.0151 17.8602 22.1401C18.9865 23.2651 20.5515 24.3126 21.6252 24.9276C21.7599 25.0032 21.9183 25.0243 22.0681 24.9866C22.2178 24.949 22.3474 24.8554 22.4302 24.7251L24.0177 22.3088C24.3096 21.9211 24.7402 21.6614 25.2192 21.5841C25.6983 21.5067 26.1887 21.6177 26.5877 21.8938C28.3465 23.1113 30.399 24.4676 31.9015 26.3913C32.1035 26.6512 32.232 26.9606 32.2736 27.2871C32.3152 27.6137 32.2682 27.9454 32.1377 28.2476C31.0915 30.6888 28.444 32.7676 25.6902 32.6663Z" fill="#0879A6"/>
</g>
<defs>
<clipPath id="clip0_198_1497">
<rect width="30" height="30" fill="white" transform="translate(5 5)"/>
</clipPath>
</defs>
</svg>
