<svg width="40" height="40" viewBox="0 0 40 40" fill="none" xmlns="http://www.w3.org/2000/svg">
<circle cx="20" cy="20" r="20" fill="#F8F9FF"/>
<path d="M12.5 10.1562C12.5 8.345 13.97 6.875 15.7812 6.875H24.2188C26.03 6.875 27.5 8.345 27.5 10.1562V29.8438C27.5 30.714 27.1543 31.5486 26.5389 32.1639C25.9236 32.7793 25.089 33.125 24.2188 33.125H15.7812C14.911 33.125 14.0764 32.7793 13.4611 32.1639C12.8457 31.5486 12.5 30.714 12.5 29.8438V10.1562ZM18.125 27.5C17.8764 27.5 17.6379 27.5988 17.4621 27.7746C17.2863 27.9504 17.1875 28.1889 17.1875 28.4375C17.1875 28.6861 17.2863 28.9246 17.4621 29.1004C17.6379 29.2762 17.8764 29.375 18.125 29.375H21.875C22.1236 29.375 22.3621 29.2762 22.5379 29.1004C22.7137 28.9246 22.8125 28.6861 22.8125 28.4375C22.8125 28.1889 22.7137 27.9504 22.5379 27.7746C22.3621 27.5988 22.1236 27.5 21.875 27.5H18.125Z" fill="#0879A6"/>
</svg>
