<svg width="54" height="54" viewBox="0 0 54 54" fill="none" xmlns="http://www.w3.org/2000/svg">
<path opacity="0.4" d="M25.4507 17.5084C26.2215 17.1873 27.0885 17.1873 27.8593 17.5084" stroke="#0879A6" stroke-width="3" stroke-linecap="round" stroke-linejoin="round"/>
<path d="M33.0161 36.0766H41.0342C42.0195 36.0766 42.8182 35.2779 42.8182 34.2926V32.0817C42.8182 30.588 42.0883 29.1885 40.8634 28.3335L40.1545 27.8387C38.4584 26.6552 36.9311 25.2469 35.6142 23.6526L33.2179 20.752" stroke="#0879A6" stroke-width="3" stroke-linecap="round" stroke-linejoin="round"/>
<path d="M20.3397 36.0766H12.3216C11.3363 36.0766 10.5376 35.2779 10.5376 34.2926V32.0817C10.5376 30.588 11.2675 29.1885 12.4925 28.3335L13.2016 27.8387C14.8974 26.6552 16.4248 25.2469 17.7418 23.6526L20.138 20.752" stroke="#0879A6" stroke-width="3" stroke-linecap="round" stroke-linejoin="round"/>
<path opacity="0.4" d="M26.7627 29.3545V33.3494" stroke="#0879A6" stroke-width="3" stroke-linecap="round" stroke-linejoin="round"/>
<path fill-rule="evenodd" clip-rule="evenodd" d="M22.5614 38.6567L21.3304 37.4257C20.6965 36.7916 20.3403 35.9319 20.3403 35.0353V17.5575C20.3403 14.2239 21.6646 11.0268 24.0219 8.66953C24.7489 7.94258 25.7348 7.53418 26.7629 7.53418C27.7909 7.53418 28.7768 7.94258 29.5038 8.66953C31.8611 11.0268 33.1853 14.2239 33.1853 17.5575V35.0353C33.1853 35.9319 32.8293 36.7916 32.1953 37.4257L30.9641 38.6567C30.3302 39.2907 29.4705 39.6467 28.5739 39.6467H24.9518C24.0552 39.6467 23.1955 39.2907 22.5614 38.6567Z" stroke="#0879A6" stroke-width="3" stroke-linecap="round" stroke-linejoin="round"/>
<g opacity="0.4">
<path d="M29.944 39.4756C29.8844 41.1064 30.2729 45.5855 32.9347 48.0335" stroke="#0879A6" stroke-width="3" stroke-linecap="round" stroke-linejoin="round"/>
<path d="M23.5811 39.4756C23.6405 41.1064 23.2521 45.5855 20.5903 48.0335" stroke="#0879A6" stroke-width="3" stroke-linecap="round" stroke-linejoin="round"/>
<path d="M37.908 47.3313C37.908 46.9681 37.8301 46.6095 37.6794 46.2792C37.5289 45.9487 37.309 45.6546 37.035 45.4165C36.7609 45.1785 36.439 45.0021 36.0909 44.899C35.7428 44.7962 35.3765 44.769 35.0172 44.8198C34.6576 44.8707 34.3132 44.998 34.0072 45.1933C33.7012 45.3886 33.4406 45.6472 33.2433 45.952C33.0457 46.2567 32.9161 46.6 32.8628 46.9591C32.8097 47.3182 32.834 47.6845 32.9346 48.0335" stroke="#0879A6" stroke-width="3" stroke-linecap="round" stroke-linejoin="round"/>
<path d="M15.6133 47.3313C15.6133 46.9681 15.6912 46.6095 15.8418 46.2792C15.9924 45.9487 16.2122 45.6546 16.4862 45.4165C16.7603 45.1785 17.0823 45.0021 17.4304 44.899C17.7785 44.7962 18.1447 44.769 18.5042 44.8198C18.8637 44.8707 19.208 44.998 19.5141 45.1933C19.8201 45.3886 20.0806 45.6472 20.278 45.952C20.4755 46.2567 20.6052 46.6 20.6585 46.9591C20.7117 47.3182 20.6873 47.6845 20.5867 48.0335" stroke="#0879A6" stroke-width="3" stroke-linecap="round" stroke-linejoin="round"/>
<path d="M45.3106 46.4719C45.2109 45.5494 44.8152 44.6841 44.1827 44.0053C43.55 43.3267 42.7143 42.8713 41.8013 42.7073C40.888 42.5432 39.9462 42.6796 39.1168 43.0956C38.2877 43.5119 37.6156 44.1855 37.2012 45.0158" stroke="#0879A6" stroke-width="3" stroke-linecap="round" stroke-linejoin="round"/>
<path d="M9.2041 46.8705C9.31768 45.818 9.81601 44.8448 10.6034 44.1374C11.3908 43.43 12.4118 43.0385 13.4702 43.0381" stroke="#0879A6" stroke-width="3" stroke-linecap="round" stroke-linejoin="round"/>
</g>
</svg>
