<svg width="71" height="70" viewBox="0 0 71 70" fill="none" xmlns="http://www.w3.org/2000/svg">
<path d="M27.1961 15.773C30.8915 9.14634 32.7378 5.83301 35.4999 5.83301C38.262 5.83301 40.1082 9.14634 43.8036 15.773L44.7603 17.488C45.8103 19.3722 46.3353 20.3143 47.152 20.9355C47.9686 21.5568 48.9895 21.7872 51.0311 22.248L52.8861 22.668C60.0611 24.2926 63.6457 25.1034 64.5003 27.848C65.352 30.5897 62.9078 33.4509 58.0165 39.1705L56.7507 40.6493C55.3624 42.2738 54.6653 43.0876 54.3532 44.0909C54.0411 45.0972 54.1461 46.1822 54.3561 48.3493L54.5486 50.3238C55.2865 57.9568 55.657 61.7718 53.4228 63.4663C51.1886 65.1638 47.8286 63.6151 41.1145 60.5234L39.3732 59.7243C37.4657 58.8434 36.512 58.4059 35.4999 58.4059C34.4878 58.4059 33.534 58.8434 31.6265 59.7243L29.8882 60.5234C23.1711 63.6151 19.8111 65.1609 17.5799 63.4693C15.3428 61.7718 15.7132 57.9568 16.4511 50.3238L16.6436 48.3522C16.8536 46.1822 16.9586 45.0972 16.6436 44.0938C16.3345 43.0876 15.6374 42.2738 14.249 40.6522L12.9832 39.1705C8.09196 33.4538 5.64779 30.5926 6.49945 27.848C7.35404 25.1034 10.9415 24.2897 18.1165 22.668L19.9715 22.248C22.0103 21.7872 23.0282 21.5568 23.8478 20.9355C24.6645 20.3143 25.1895 19.3722 26.2395 17.488L27.1961 15.773Z" stroke="#F8F9FF" stroke-width="4"/>
</svg>
